<svg xmlns="http://www.w3.org/2000/svg" width="116" height="34" viewBox="0 0 116 34" fill="none">
<path fill-rule="evenodd" clip-rule="evenodd" d="M66.7841 19.6463V22.3033H68.423V26.6416C68.423 27.6223 69.1158 28.1993 69.8365 28.1993C70.4424 28.1993 71.2498 27.7664 71.2498 26.6416V22.3446H74.2489V33.419H77.0756V19.6337L66.7841 19.6463ZM36.0934 13.2385V15.8955H38.1504V25.3153C38.1504 29.1219 36.103 30.939 33.0745 30.939C31.0562 30.939 29.0661 30.2752 27.4217 29.0928V32.1504C28.9221 32.9581 31.0562 33.7409 33.1325 33.7409C36.9107 33.7409 41.0632 31.4008 41.0632 25.1993V13.2311L36.0934 13.2385ZM85.4672 30.7455H82.4495V16.0281H85.794V21.6238H90.0914V18.826H88.7078V13.2311H79.5364V33.419L85.4672 33.4023V30.7455ZM90.1479 13.2385V15.8955H93.437V30.622H90.0914V24.6226H85.794V27.4204H87.1787V33.419H96.3498V13.2311L90.1479 13.2385ZM106.465 13.2412L116 13.2311V16.0281H111.559V33.419H102.387V16.0281H97.9172V13.2311H105.3V30.622H108.646V15.898H106.465V13.2412ZM65.4241 19.6337H62.5975V27.5074C62.5975 31.458 65.2504 33.7409 68.2212 33.7409C69.6923 33.7409 70.673 33.3041 71.2788 32.9292V30.0735C70.8748 30.4481 70.0965 31.0251 68.827 31.0251C67.0099 31.0251 65.4241 29.6416 65.4241 27.1317V19.6337ZM57.6276 13.2311H44.0438V25.3442C44.0438 30.0735 47.1298 33.7409 51.8589 33.7409C57.0218 33.7409 59.9056 30.0164 59.9056 26.123C59.9056 21.9117 56.5316 18.5661 52.5514 18.5661C51.5999 18.5661 50.8502 18.8549 50.3305 19.0858V21.9986C50.994 21.5658 51.6859 21.364 52.3207 21.364C54.8005 21.364 56.9928 23.4981 56.9928 26.123C56.9928 28.7179 54.9455 30.939 51.9747 30.939C49.2637 30.939 46.9568 29.0358 46.9568 25.1424V16.0281H57.6276V13.2311ZM34.8055 13.2311H25.6344V20.8742C25.6344 25.3442 28.9509 27.8242 32.2096 27.8242C32.8444 27.8242 34.3439 27.7664 34.8055 26.4688V24.2478C34.4589 24.5076 33.5941 25.0263 32.2957 25.0263C30.3063 25.0263 28.5471 23.4402 28.5471 20.9603V16.0281H31.8919V20.4125C31.8919 21.364 32.6136 22.0275 33.4213 22.0275C34.0267 22.0275 34.8055 21.5949 34.8055 20.3833V13.2311ZM0 33.3939H2.91282L4.08094 20.82C4.41716 17.2011 6.12836 15.6863 8.3493 15.6863C9.99267 15.6863 11.0314 16.4939 12.0119 18.0511C12.8485 16.3786 14.117 15.6863 15.6744 15.6863C17.7513 15.6863 19.5842 17.0005 19.9426 20.849L21.1107 33.3939H24.0238L22.8556 20.9351C22.2097 14.0439 18.7602 12.8884 16.1653 12.8884C13.7423 12.8884 12.5017 14.1577 12.0119 14.6764C11.5212 14.1577 10.1947 12.8884 7.85866 12.8884C5.29156 12.8884 1.82237 13.9575 1.16821 20.9351L0 33.3939ZM6.25771 33.3939H9.28792L9.60041 30.7034C10.1127 31.4523 10.7337 31.8488 11.9908 31.8536C13.2478 31.8584 13.8403 31.301 14.3407 30.6957L14.6701 33.3939H17.7651L16.597 20.3293C16.5176 19.4391 15.9923 18.8009 15.0977 18.8009C14.2039 18.8009 13.6842 19.494 13.6842 20.56V27.6368C13.6842 28.3624 12.8454 29.0323 12.0041 29.0323C11.163 29.0323 10.3395 28.3628 10.3395 27.6368V20.5023C10.3395 19.9545 10.2526 18.8009 8.9831 18.8009C8.00358 18.8009 7.52791 19.4692 7.42583 20.5891L6.25771 33.3939Z" fill="#1B4E9B"/>
<path fill-rule="evenodd" clip-rule="evenodd" d="M49.2393 26.1603C49.2393 27.703 50.4191 28.9734 52.0524 28.9734C53.6408 28.9734 54.8663 27.7484 54.8663 26.1603C54.8663 24.5267 53.5953 23.3469 52.0524 23.3469C50.4191 23.3469 49.2393 24.5267 49.2393 26.1603Z" fill="#34C3FF"/>
<path d="M4.42969 8.50172H6.16049L6.66713 6.28801H8.49211L8.89237 8.50172H10.6355L8.75115 0H6.58449L4.42969 8.50172ZM6.86734 5.0279L7.64455 1.07143L8.29198 5.0279H6.86734ZM20.7027 0H19.0898V8.50172H20.7027V5.94624L21.3387 5.11055L22.752 8.50172H24.5535L22.3279 3.68549L24.4827 0H22.6578L20.7027 3.68549V0ZM32.6547 8.50172H34.3855L34.8921 6.28801H36.7171L37.1174 8.50172H38.8604L36.9761 0H34.8095L32.6547 8.50172ZM35.0922 5.0279L35.8694 1.07143L36.517 5.0279H35.0922ZM48.3625 0V2.64916C48.3625 3.11641 48.3548 3.5345 48.337 3.90337C48.3175 4.27224 48.2899 4.60812 48.2526 4.90621C48.2136 5.20464 48.1644 5.48329 48.1033 5.73854C48.0428 5.99379 47.9702 6.24096 47.8838 6.47837C47.7973 6.71587 47.6993 6.95926 47.5853 7.20644H47.079V10.2092H48.6334V8.50172H52.1543V10.2092H53.7087V7.20644H53.1907V0H48.3625ZM51.5773 1.29529V7.20644H49.1867C49.3105 6.94352 49.4203 6.68061 49.5144 6.41139C49.6107 6.14469 49.6891 5.85804 49.7561 5.55195C49.8206 5.24578 49.8698 4.90234 49.9011 4.52371C49.9346 4.14466 49.9525 3.7109 49.9525 3.22623V1.29529H51.5773ZM62.434 0V8.50172H66.9794V7.20644H64.047V4.56864H66.7203V3.27327H64.047V1.29529H66.9794V0H62.434ZM75.775 0V8.50172H77.2819V0.812385H77.2938L78.9071 8.50172H80.0613L81.6743 0.80052H81.6861V8.50172H83.1935V0H80.6146L79.4842 5.52267L78.3539 0H75.775ZM92.1545 0V8.50172H93.8971L96.2521 2.3312H96.2639C96.2088 2.58469 96.1676 2.85737 96.1384 3.1499C96.1108 3.4421 96.0892 3.76391 96.0795 4.11536C96.0676 4.46647 96.0638 4.85739 96.0638 5.28694V8.50172H97.5712V0H95.8281L93.4731 6.18205H93.4613C93.4986 6.00346 93.5321 5.79534 93.5575 5.55784C93.5829 5.31833 93.6028 5.06518 93.6186 4.79419C93.6342 4.52539 93.6457 4.2528 93.6516 3.97591C93.6575 3.69945 93.6614 3.43444 93.6614 3.17918V0H92.1545ZM110.158 5.03976V8.50172H111.772V0H108.663C108.318 0.00168317 108.009 0.0665795 107.738 0.195847C107.47 0.323516 107.24 0.502431 107.052 0.72966C106.863 0.957393 106.72 1.22073 106.622 1.51874C106.524 1.81893 106.473 2.14075 106.473 2.48462C106.474 2.84381 106.528 3.17919 106.632 3.49125C106.738 3.8012 106.889 4.0743 107.087 4.30792C107.285 4.54112 107.525 4.72384 107.803 4.85151L106.155 8.50172H107.909L109.37 5.03976H110.158ZM110.158 3.77958H109.346C108.94 3.7779 108.633 3.66806 108.43 3.44798C108.223 3.2301 108.121 2.91627 108.121 2.50802C108.121 2.10557 108.223 1.79731 108.43 1.58363C108.633 1.36953 108.94 1.2618 109.346 1.2597H110.158V3.77958Z" fill="#1B4E9B"/>
</svg>